{"title":"House.Of.Secrets.2014.720p.HDTV.x264_TTL","uid":9491137,"size":2090953841,"categoryP":"video","categoryS":"hd___tv_shows","magnet":"?xt=urn:btih:dd2c72f64824a6129d856e01938d2d4012948ccc&amp;dn=House.Of.Secrets.2014.720p.HDTV.x264_TTL&amp;tr=udp%3A%2F%2Ftracker.openbittorrent.com%3A80&amp;tr=udp%3A%2F%2Fopen.demonii.com%3A1337&amp;tr=udp%3A%2F%2Ftracker.coppersurfer.tk%3A6969&amp;tr=udp%3A%2F%2Fexodus.desync.com%3A6969","seeders":1,"leechers":0,"uploader":"thetorrentlord","files":-1,"time":1389995153,"description":"Found this on the net and added chapters and ran it through an older version of MKVMerge \n\nto make it more compatible with stand alone BluRay players.\t\t\t\t\t\n\n\t\t\t\t\t\t\t\t\t\t\t\t\n &lt;a href=&quot;\nhttp://www.imdb.com/title/tt3159738/&quot; rel=&quot;nofollow&quot; target=&quot;_NEW&quot;&gt;\nhttp://www.imdb.com/title/tt3159738/&lt;/a&gt;\t\t\t\t\t\t\t\t\t\t\t\t\t\t\t\t\t\t\t\t\t\t\t\t\t\t\t\t\t\t &lt;a href=&quot;\thttp://www.mylifetime.com/movies/house-of-secrets&quot; rel=&quot;nofollow&quot; target=&quot;_NEW&quot;&gt;\thttp://www.mylifetime.com/movies/house-of-secrets&lt;/a&gt;\t\t\t\t\t\t\t\t\t\t\t\t\t\t\t\t\t\t\t\t\t\t\t\t\t\t\t\t\t\n\nAll credit to the original up-loader.\t\t\t\t\t\t\t\t\n\n\t\t\t\t\t\t\t\t\t\t\t\t\n\nThis was posted here on 1-8-2014 in a 700MB version, but I did not see a 720p version.\t\t\n\n\t\t\t\t\t\t\t\t\t\t\t\t\n\n\t\t\t\t\t\t\t\t\t\t\t\t\n\nEnjoy and please share.\t\t\t\t\t\t\t\t\t\t\n\n\t\t\t\t\t\t\t\t\t\t\t\t\n\n\t\t\t\t\t\t\t\t\t\t\t\t\n\nTTLTTLTTLTTLTTLTTLTTLTTLTTLTTLTTLTTLTTLTTLTTLTTLTTLTTLTTLTTLTTLTTL\t\t\t\t\n\n\t\t\t\t\t\t\t\t\t\t\t\t\n\n\t\t\t\t\t\t\t\t\t\t\t\t\n\nHouse.Of.Secrets.2014.720p.HDTV.x264_TTL.mkv\nFormat                           : Matroska\nFile size                        : 1.93 GiB\nDuration                         : 1h 23mn\nOverall bit rate                 : 3 288 Kbps\nEncoded date                     : UTC 2014-01-17 19:30:14\nWriting application              : mkvmerge v3.3.0 ('Language') built on Mar 24 2010 \n\n14:59:24\nWriting library                  : libebml v0.8.0 + libmatroska v0.9.0\n\nVideo\nID                               : 1\nFormat                           : AVC\nFormat/Info                      : Advanced Video Codec\nFormat profile                   : &lt;a class=&quot;__cf_email__&quot; href=&quot;/cdn-cgi/l/email-protection&quot; data-cfemail=&quot;fdb5949a95bdb1c9d3cc&quot;&gt;[email&amp;#160;protected]&lt;/a&gt;&lt;script cf-hash='f9e31' type=&quot;text/javascript&quot;&gt;\n/* &lt;![CDATA[ */!function(){try{var t=&quot;currentScript&quot;in document?document.currentScript:function(){for(var t=document.getElementsByTagName(&quot;script&quot;),e=t.length;e--;)if(t[e].getAttribute(&quot;cf-hash&quot;))return t[e]}();if(t&amp;&amp;t.previousSibling){var e,r,n,i,c=t.previousSibling,a=c.getAttribute(&quot;data-cfemail&quot;);if(a){for(e=&quot;&quot;,r=parseInt(a.substr(0,2),16),n=2;a.length-n;n+=2)i=parseInt(a.substr(n,2),16)^r,e+=String.fromCharCode(i);e=document.createTextNode(e),c.parentNode.replaceChild(e,c)}}}catch(u){}}();/* ]]&gt; */&lt;/script&gt;\nFormat settings, CABAC           : Yes\nFormat settings, ReFrames        : 5 frames\nMuxing mode                      : Container profile=&lt;a class=&quot;__cf_email__&quot; href=&quot;/cdn-cgi/l/email-protection&quot; data-cfemail=&quot;c194afaaafaeb6af81f5eff0&quot;&gt;[email&amp;#160;protected]&lt;/a&gt;&lt;script cf-hash='f9e31' type=&quot;text/javascript&quot;&gt;\n/* &lt;![CDATA[ */!function(){try{var t=&quot;currentScript&quot;in document?document.currentScript:function(){for(var t=document.getElementsByTagName(&quot;script&quot;),e=t.length;e--;)if(t[e].getAttribute(&quot;cf-hash&quot;))return t[e]}();if(t&amp;&amp;t.previousSibling){var e,r,n,i,c=t.previousSibling,a=c.getAttribute(&quot;data-cfemail&quot;);if(a){for(e=&quot;&quot;,r=parseInt(a.substr(0,2),16),n=2;a.length-n;n+=2)i=parseInt(a.substr(n,2),16)^r,e+=String.fromCharCode(i);e=document.createTextNode(e),c.parentNode.replaceChild(e,c)}}}catch(u){}}();/* ]]&gt; */&lt;/script&gt;\nCodec ID                         : V_MPEG4/ISO/AVC\nDuration                         : 1h 23mn\nBit rate                         : 3 030 Kbps\nWidth                            : 1 280 pixels\nHeight                           : 720 pixels\nDisplay aspect ratio             : 16:9\nFrame rate                       : 23.976 fps\nResolution                       : 8 bits\nColorimetry                      : 4:2:0\nScan type                        : Progressive\nBits/(Pixel*Frame)               : 0.137\nStream size                      : 1.78 GiB (92%)\nWriting library                  : x264 core 140 r2377 1ca7bb9\n\nLanguage                         : English\n\nAudio\nID                               : 2\nFormat                           : AC-3\nFormat/Info                      : Audio Coding 3\nCodec ID                         : A_AC3\nDuration                         : 1h 23mn\nBit rate mode                    : Constant\nBit rate                         : 192 Kbps\nChannel(s)                       : 2 channels\nChannel positions                : L R\nSampling rate                    : 48.0 KHz\nStream size                      : 115 MiB (6%)\nLanguage                         : English\n\nMenu\n00:00:00.000                     : :Chapter 1\n00:06:00.000                     : :Chapter 2\n00:12:00.000                     : :Chapter 3\n00:18:00.000                     : :Chapter 4\n00:24:00.000                     : :Chapter 5\n00:30:00.000                     : :Chapter 6\n00:36:00.000                     : :Chapter 7\n00:42:00.000                     : :Chapter 8\n00:48:00.000                     : :Chapter 9\n00:54:00.000                     : :Chapter 10\n01:00:00.000                     : :Chapter 11\n01:06:00.000                     : :Chapter 12\n01:12:00.000                     : :Chapter 13\n01:18:00.000                     : :Chapter 14\n\n\n","torrent":{"xt":"urn:btih:dd2c72f64824a6129d856e01938d2d4012948ccc","amp;dn":"House.Of.Secrets.2014.720p.HDTV.x264_TTL","amp;tr":["udp%3A%2F%2Ftracker.openbittorrent.com%3A80","udp%3A%2F%2Fopen.demonii.com%3A1337","udp%3A%2F%2Ftracker.coppersurfer.tk%3A6969","udp%3A%2F%2Fexodus.desync.com%3A6969"],"infoHash":"dd2c72f64824a6129d856e01938d2d4012948ccc","infoHashBuffer":{"type":"Buffer","data":[221,44,114,246,72,36,166,18,157,133,110,1,147,141,45,64,18,148,140,204]},"announce":[],"urlList":[]}}